<svg width="482" height="368" viewBox="0 0 482 368" fill="none" xmlns="http://www.w3.org/2000/svg">
<path d="M337.958 92.3702C378.163 122.854 426.277 136.644 453.629 163.498C480.982 190.353 487.572 230.513 475.05 268.254C462.856 305.996 431.22 341.56 387.72 353.656C343.89 365.995 288.196 355.108 230.196 357.527C171.866 359.947 111.559 375.672 70.3656 362.85C29.5017 349.785 8.41067 308.173 2.47882 268.98C-3.45303 229.787 5.77431 193.014 19.2858 155.514C32.7972 117.773 49.9336 79.3059 86.1838 47.8548C122.434 16.4036 177.468 -8.27339 221.298 3.0974C265.128 14.4682 297.753 61.6449 337.958 92.3702Z" fill="#2C3D7D"/>
</svg>
