<svg width="61" height="59" viewBox="0 0 61 59" fill="none" xmlns="http://www.w3.org/2000/svg">
<path d="M58.7968 20.5893C62.4426 17.1356 60.7801 13.1017 58.7968 11.14L50.0468 2.85113C46.3718 -0.602566 42.1426 0.972318 40.0718 2.85113L35.1135 7.57578H27.5593C22.0176 7.57578 18.8093 10.3387 17.176 13.5161L4.22597 25.7837V36.8355L2.15514 38.7695C-1.4907 42.2509 0.171802 46.2572 2.15514 48.2188L10.9051 56.5077C12.4801 57.9997 14.1718 58.5523 15.776 58.5523C17.8468 58.5523 19.7426 57.5853 20.8801 56.5077L28.7551 49.0201H39.226C44.1843 49.0201 46.6926 46.0914 47.5968 43.2179C50.8926 42.389 52.701 40.0129 53.4301 37.692C57.951 36.5868 59.6426 32.5253 59.6426 29.6794V21.3906H57.9218L58.7968 20.5893ZM53.8093 29.6794C53.8093 30.9228 53.2551 32.4424 50.8926 32.4424H47.976V35.2053C47.976 36.4487 47.4218 37.9683 45.0593 37.9683H42.1426V40.7312C42.1426 41.9746 41.5885 43.4942 39.226 43.4942H26.3635L16.7968 52.5567C15.8926 53.358 15.3676 52.8882 15.0468 52.5843L6.32597 44.3507C5.48014 43.4942 5.97597 42.9969 6.2968 42.6929L10.0593 39.1011V28.0493L15.8926 22.5234V26.9165C15.8926 30.2596 18.226 35.2053 24.6426 35.2053C31.0593 35.2053 33.3926 30.2596 33.3926 26.9165H53.8093V29.6794ZM54.6551 16.6659L49.6968 21.3906H27.5593V26.9165C27.5593 28.1598 27.0051 29.6794 24.6426 29.6794C22.2801 29.6794 21.726 28.1598 21.726 26.9165V18.6276C21.726 17.3566 22.2218 13.1017 27.5593 13.1017H37.5051L44.1551 6.80215C45.0593 6.0009 45.5843 6.4706 45.9051 6.77452L54.626 15.0081C55.4718 15.8646 54.976 16.362 54.6551 16.6659Z" fill="#F8F8F8"/>
</svg>
