<svg width="59" height="56" viewBox="0 0 59 56" fill="none" xmlns="http://www.w3.org/2000/svg">
<path fill-rule="evenodd" clip-rule="evenodd" d="M39.3108 53.866C44.8941 51.9023 49.7094 48.3671 53.1098 43.7353C56.5103 39.1035 58.333 33.5968 58.3333 27.955C58.3333 12.6952 45.2754 0.325439 29.1667 0.325439C13.0579 0.325439 0 12.6952 0 27.955C0 43.2148 13.0579 55.5845 29.1667 55.5845C32.3194 55.5879 35.4518 55.1064 38.4417 54.1589C38.7459 54.1054 39.0393 54.0066 39.3108 53.866ZM29.1667 5.85135C24.4773 5.84441 19.8956 7.18232 16.0242 9.68909C16.0358 9.78856 16.0417 9.89079 16.0417 9.99578V19.7214C16.0411 20.3132 16.2412 20.8896 16.6124 21.3656C16.9836 21.8416 17.5064 22.1921 18.1037 22.3655L21.8692 23.4541L21.3587 20.5586C20.9919 18.4742 21.4793 16.3358 22.7213 14.5804C23.9633 12.8251 25.8661 11.5854 28.0408 11.1148L29.2104 10.8633C29.7592 10.7445 30.2599 10.4778 30.6522 10.0954C31.0445 9.71302 31.3116 9.23125 31.4212 8.70824L31.9929 6.0116C31.0551 5.90459 30.1113 5.85107 29.1667 5.85135ZM10.2083 19.7214V15.0658C7.44708 18.7079 5.92047 23.0594 5.83115 27.5426C5.74183 32.0259 7.09402 36.4289 9.70822 40.167C12.3224 43.9052 16.075 46.8018 20.4678 48.4723C24.8606 50.1428 29.6858 50.5081 34.3029 49.5199L32.6112 43.9055C32.4744 43.4543 32.2184 43.0435 31.8675 42.7119L28.2567 39.2886C27.8215 38.8766 27.4829 38.3822 27.2631 37.8378C27.0433 37.2934 26.9472 36.7112 26.981 36.1292C27.0149 35.5472 27.1779 34.9785 27.4596 34.4603C27.7412 33.9421 28.1351 33.486 28.6154 33.1217L33.18 29.6653C34.0502 29.0058 35.1016 28.5963 36.2098 28.4851C37.318 28.374 38.4366 28.5659 39.4333 29.0381L43.7208 31.0688C45.0091 31.6791 46.1184 32.5812 46.9502 33.6951C47.7821 34.8089 48.3109 36.1001 48.4896 37.454L48.8104 39.8882C50.6742 37.1337 51.8696 34.0218 52.3103 30.7768C52.751 27.5318 52.426 24.2346 51.3588 21.1229C50.2916 18.0113 48.5088 15.1628 46.1389 12.7828C43.769 10.4028 40.8711 8.55065 37.6542 7.35992L37.1408 9.79409C36.81 11.3607 36.0082 12.8034 34.832 13.9485C33.6558 15.0936 32.1554 15.8922 30.5112 16.2483L29.3417 16.5025C28.6162 16.6592 27.9814 17.0726 27.5671 17.6582C27.1529 18.2437 26.9905 18.9571 27.1133 19.6523L27.6237 22.5479C27.7864 23.476 27.6961 24.4281 27.3616 25.314C27.0271 26.1998 26.4593 26.9901 25.7121 27.6099C24.9649 28.2297 24.0631 28.6586 23.0919 28.8558C22.1208 29.053 21.1127 29.0121 20.1629 28.7369L16.4004 27.6483C14.6083 27.1293 13.0394 26.079 11.9246 24.652C10.8099 23.225 10.2083 21.4966 10.2083 19.7214ZM43.645 45.2898C42.4489 46.1884 41.1623 46.9731 39.8037 47.6328L38.22 42.3887C37.8121 41.0335 37.0461 39.7991 35.9946 38.8023L33.5329 36.4732L36.8229 33.981L41.1104 36.0118C41.5402 36.2148 41.9105 36.5152 42.1883 36.8863C42.4661 37.2574 42.6429 37.6878 42.7029 38.1392L43.645 45.2898Z" fill="#F8F8F8"/>
</svg>
