<svg width="60" height="53" viewBox="0 0 60 53" fill="none" xmlns="http://www.w3.org/2000/svg">
<path d="M6.66634 52.4962H34.7247C36.4078 52.497 38.0712 52.1524 39.6003 51.4861C41.1294 50.8198 42.488 49.8476 43.5826 48.6363L58.4634 32.1912C58.775 31.8475 58.9926 31.4364 59.097 30.9942C59.2014 30.552 59.1893 30.0923 59.062 29.6555C58.9346 29.2188 58.6958 28.8184 58.3666 28.4897C58.0374 28.161 57.6279 27.914 57.1743 27.7705L51.4343 25.958C50.047 25.5308 48.5699 25.4342 47.1337 25.6766C45.6976 25.919 44.3467 26.493 43.2005 27.3478L33.9109 34.385L32.1113 30.9727C31.1473 29.1334 29.6587 27.5865 27.8143 26.5073C25.9699 25.4282 23.8434 24.8598 21.6755 24.8666H6.66634C3.44926 24.8666 0.833008 27.345 0.833008 30.3925V46.9703C0.833008 50.0178 3.44926 52.4962 6.66634 52.4962ZM6.66634 30.3925H21.6755C23.9009 30.3925 25.8988 31.5613 26.8934 33.4456L28.1972 35.9184H15.4163V41.4443H32.9572C33.4059 41.4387 33.8472 41.3347 34.2463 41.1404L34.2551 41.1377L34.2668 41.1321H34.2755L34.2813 41.1294H34.293L34.2959 41.1266C34.3222 41.1349 34.3047 41.1238 34.3047 41.1238C34.3338 41.1238 34.3105 41.1211 34.3105 41.1211H34.3134L34.3193 41.1183L34.328 41.1156L34.3338 41.1128L34.3397 41.11L34.3484 41.1073L34.3543 41.1045C34.363 41.1045 34.3572 41.1017 34.3601 41.1017L34.3688 41.0962L34.3747 41.0934L34.3805 41.0907L34.3893 41.0879L34.3951 41.0852H34.398L34.4038 41.0824L34.4126 41.0796L34.4184 41.0769C34.4447 41.0741 34.4272 41.0741 34.4272 41.0741L34.433 41.0713C34.5454 41.0071 34.6526 40.9351 34.7538 40.8558L46.8463 31.6911C47.6105 31.1164 48.6634 30.9368 49.588 31.2297L51.2126 31.7436L39.158 45.0693C38.6035 45.6658 37.9215 46.1437 37.1571 46.4714C36.3928 46.7992 35.5637 46.9692 34.7247 46.9703H6.66634V30.3925ZM41.6663 2.59875e-05H41.6168C41.1413 0.0055519 38.6826 0.107781 35.833 1.94791C33.0593 0.157514 30.6588 0.0138406 30.093 0.00278874L30.0055 2.59875e-05H29.9938C27.6576 2.59875e-05 25.4584 0.864831 23.8134 2.4259C22.1626 3.9925 21.2497 6.073 21.2497 8.28889C21.2497 10.5048 22.1626 12.5853 23.7609 14.1021L33.7184 24.0101C33.9924 24.2795 34.3209 24.4938 34.6844 24.64C35.0479 24.7863 35.4387 24.8615 35.8336 24.8613C36.2285 24.861 36.6193 24.7853 36.9825 24.6385C37.3458 24.4918 37.674 24.2771 37.9476 24.0073L47.8526 14.1491C49.5063 12.5853 50.4163 10.5048 50.4163 8.28889C50.4163 6.073 49.5034 3.9925 47.8555 2.42866C47.0456 1.65654 46.0821 1.04431 45.0207 0.627425C43.9593 0.210541 42.8212 -0.00270952 41.6722 2.59875e-05H41.6663ZM44.583 8.28889C44.583 9.0266 44.2797 9.7201 43.6759 10.292L35.833 18.0974L27.9376 10.2423C27.3863 9.7201 27.083 9.0266 27.083 8.28889C27.083 7.55118 27.3863 6.85768 27.9405 6.33272C28.4679 5.82449 29.1861 5.53447 29.9384 5.52594C30.0113 5.5287 31.4026 5.61435 33.0505 6.86597C33.2868 7.04556 33.5259 7.25002 33.7709 7.47934L35.833 9.43275L37.8951 7.47934C38.1401 7.25002 38.3793 7.04556 38.6155 6.86597C40.1584 5.69171 41.4622 5.54528 41.6838 5.5287C42.064 5.52863 42.4404 5.59989 42.7913 5.73836C43.1422 5.87684 43.4607 6.07978 43.7284 6.33548C44.2797 6.85768 44.583 7.55118 44.583 8.28889Z" fill="#F8F8F8"/>
</svg>
