<svg width="27" height="28" viewBox="0 0 27 28" fill="none" xmlns="http://www.w3.org/2000/svg">
<path d="M13.5 13.626C14.1187 13.626 14.6486 13.4055 15.0896 12.9645C15.5299 12.5242 15.75 11.9947 15.75 11.376C15.75 10.7572 15.5299 10.2274 15.0896 9.78635C14.6486 9.3461 14.1187 9.12598 13.5 9.12598C12.8813 9.12598 12.3518 9.3461 11.9115 9.78635C11.4705 10.2274 11.25 10.7572 11.25 11.376C11.25 11.9947 11.4705 12.5242 11.9115 12.9645C12.3518 13.4055 12.8813 13.626 13.5 13.626ZM13.5 21.8947C15.7875 19.7947 17.4844 17.8867 18.5906 16.1707C19.6969 14.4555 20.25 12.9322 20.25 11.601C20.25 9.55723 19.5982 7.8836 18.2947 6.5801C16.992 5.27735 15.3938 4.62598 13.5 4.62598C11.6063 4.62598 10.0076 5.27735 8.70412 6.5801C7.40138 7.8836 6.75 9.55723 6.75 11.601C6.75 12.9322 7.30312 14.4555 8.40937 16.1707C9.51562 17.8867 11.2125 19.7947 13.5 21.8947ZM13.5 24.4541C13.35 24.4541 13.2 24.426 13.05 24.3697C12.9 24.3135 12.7688 24.2385 12.6562 24.1447C9.91875 21.726 7.875 19.4809 6.525 17.4094C5.175 15.3371 4.5 13.401 4.5 11.601C4.5 8.78848 5.40488 6.54785 7.21463 4.8791C9.02363 3.21035 11.1188 2.37598 13.5 2.37598C15.8812 2.37598 17.9764 3.21035 19.7854 4.8791C21.5951 6.54785 22.5 8.78848 22.5 11.601C22.5 13.401 21.825 15.3371 20.475 17.4094C19.125 19.4809 17.0813 21.726 14.3438 24.1447C14.2312 24.2385 14.1 24.3135 13.95 24.3697C13.8 24.426 13.65 24.4541 13.5 24.4541Z" fill="white"/>
</svg>
