<svg width="54" height="51" viewBox="0 0 54 51" fill="none" xmlns="http://www.w3.org/2000/svg">
<path d="M50.3625 35.1763C46.775 35.1763 43.3042 34.6237 40.0667 33.6291C39.5595 33.4662 39.0141 33.442 38.4931 33.5593C37.9721 33.6766 37.4965 33.9306 37.1208 34.2922L32.5417 39.7352C24.2875 36.0052 16.5583 28.9597 12.4458 20.8642L18.1333 16.2777C18.9208 15.5041 19.1542 14.4265 18.8333 13.4595C17.7542 10.3926 17.2 7.10471 17.2 3.70627C17.2 2.21428 15.8875 0.970947 14.3125 0.970947H4.22083C2.64583 0.970947 0.75 1.63406 0.75 3.70627C0.75 29.3741 23.2958 50.7041 50.3625 50.7041C52.4333 50.7041 53.25 48.9635 53.25 47.4438V37.9117C53.25 36.4197 51.9375 35.1763 50.3625 35.1763Z" fill="#F8F8F8"/>
</svg>
