<svg width="27" height="28" viewBox="0 0 27 28" fill="none" xmlns="http://www.w3.org/2000/svg">
<path d="M15.75 21.501H21.375V5.75098H5.625V21.501H13.5V15.876H11.25V13.626H13.5V11.7652C13.5 10.2611 13.6575 9.71548 13.95 9.16535C14.2381 8.62106 14.6835 8.17613 15.228 7.88848C15.6578 7.65785 16.1921 7.51948 17.1259 7.45985C17.496 7.43623 17.9752 7.46548 18.5636 7.54985V9.68735H18C16.9684 9.68735 16.542 9.73573 16.2877 9.87185C16.136 9.94988 16.0125 10.0734 15.9345 10.2251C15.7995 10.4794 15.75 10.7314 15.75 11.7641V13.626H18.5625L18 15.876H15.75V21.501ZM4.5 3.50098H22.5C22.7984 3.50098 23.0845 3.6195 23.2955 3.83048C23.5065 4.04146 23.625 4.32761 23.625 4.62598V22.626C23.625 22.9243 23.5065 23.2105 23.2955 23.4215C23.0845 23.6325 22.7984 23.751 22.5 23.751H4.5C4.20163 23.751 3.91548 23.6325 3.7045 23.4215C3.49353 23.2105 3.375 22.9243 3.375 22.626V4.62598C3.375 4.32761 3.49353 4.04146 3.7045 3.83048C3.91548 3.6195 4.20163 3.50098 4.5 3.50098Z" fill="white"/>
</svg>
