<svg width="27" height="28" viewBox="0 0 27 28" fill="none" xmlns="http://www.w3.org/2000/svg">
<path d="M19.125 10.1914C18.711 10.3714 18.2666 10.4951 17.7997 10.5491C18.2767 10.2679 18.6412 9.82236 18.8145 9.29249C18.36 9.55739 17.864 9.74375 17.3475 9.84374C17.1302 9.61601 16.8689 9.43492 16.5793 9.31152C16.2898 9.18812 15.9781 9.12499 15.6634 9.12599C14.3887 9.12599 13.356 10.1441 13.356 11.3985C13.356 11.5762 13.3762 11.7495 13.4156 11.916C12.5014 11.8726 11.6062 11.6391 10.7872 11.2304C9.96826 10.8216 9.24348 10.2467 8.65912 9.54224C8.45388 9.88773 8.34582 10.2823 8.34638 10.6841C8.34638 11.4716 8.75475 12.1691 9.3735 12.5752C9.00725 12.5638 8.64884 12.4662 8.32725 12.2906V12.3187C8.33073 12.8469 8.51715 13.3575 8.85478 13.7636C9.19241 14.1698 9.66038 14.4463 10.179 14.5462C9.83853 14.6363 9.48228 14.6493 9.13612 14.5845C9.28702 15.0388 9.57563 15.4349 9.9619 15.7178C10.3482 16.0006 10.8129 16.1562 11.2916 16.1629C10.4703 16.7957 9.46197 17.1377 8.42512 17.1349C8.2395 17.1349 8.05612 17.1236 7.875 17.1034C8.93303 17.7731 10.1598 18.1278 11.412 18.126C15.6577 18.126 17.9786 14.6632 17.9786 11.6595L17.9707 11.3647C18.4233 11.0467 18.8144 10.6491 19.125 10.1914Z" fill="white"/>
<path d="M6.75 4.62598C6.15326 4.62598 5.58097 4.86303 5.15901 5.28499C4.73705 5.70694 4.5 6.27924 4.5 6.87598V20.376C4.5 20.9727 4.73705 21.545 5.15901 21.967C5.58097 22.3889 6.15326 22.626 6.75 22.626H20.25C20.8467 22.626 21.419 22.3889 21.841 21.967C22.2629 21.545 22.5 20.9727 22.5 20.376V6.87598C22.5 6.27924 22.2629 5.70694 21.841 5.28499C21.419 4.86303 20.8467 4.62598 20.25 4.62598H6.75ZM6.75 2.37598H20.25C21.4435 2.37598 22.5881 2.85008 23.432 3.694C24.2759 4.53791 24.75 5.6825 24.75 6.87598V20.376C24.75 21.5694 24.2759 22.714 23.432 23.558C22.5881 24.4019 21.4435 24.876 20.25 24.876H6.75C5.55653 24.876 4.41193 24.4019 3.56802 23.558C2.72411 22.714 2.25 21.5694 2.25 20.376V6.87598C2.25 5.6825 2.72411 4.53791 3.56802 3.694C4.41193 2.85008 5.55653 2.37598 6.75 2.37598Z" fill="white"/>
</svg>
