<svg width="27" height="28" viewBox="0 0 27 28" fill="none" xmlns="http://www.w3.org/2000/svg">
<path d="M15.75 13.626L11.8125 15.876V11.376L15.75 13.626Z" fill="white" stroke="white" stroke-width="2.5" stroke-linecap="round" stroke-linejoin="round"/>
<path d="M2.25 14.4215V12.8297C2.25 9.5728 2.25 7.9438 3.26812 6.89642C4.28737 5.84792 5.89162 5.80292 9.099 5.7118C10.6177 5.66905 12.1702 5.63867 13.5 5.63867C14.8286 5.63867 16.3811 5.66905 17.901 5.7118C21.1084 5.80292 22.7126 5.84792 23.7307 6.89642C24.75 7.9438 24.75 9.57392 24.75 12.8297V14.4215C24.75 17.6795 24.75 19.3074 23.7319 20.3559C22.7126 21.4033 21.1095 21.4494 17.901 21.5394C16.3822 21.5833 14.8297 21.6137 13.5 21.6137C12.0327 21.6093 10.5656 21.5845 9.099 21.5394C5.89162 21.4494 4.28737 21.4044 3.26812 20.3559C2.25 19.3074 2.25 17.6784 2.25 14.4227V14.4215Z" stroke="white" stroke-width="2.5"/>
</svg>
